<svg xmlns="http://www.w3.org/2000/svg" xmlns:xlink="http://www.w3.org/1999/xlink" width="250" zoomAndPan="magnify" viewBox="0 0 187.5 187.499992" height="250" preserveAspectRatio="xMidYMid meet" version="1.0"><defs><g/><clipPath id="e2f13cccfe"><path d="M 45.5 4 L 82 4 L 82 106 L 45.5 106 Z M 45.5 4 " clip-rule="nonzero"/></clipPath><clipPath id="3a416e27a8"><path d="M 135 7 L 141.246094 7 L 141.246094 15 L 135 15 Z M 135 7 " clip-rule="nonzero"/></clipPath></defs><g clip-path="url(#e2f13cccfe)"><path fill="#ffffff" d="M 45.53125 60.917969 L 45.53125 48.28125 C 48.09375 48.140625 50.023438 47.753906 51.324219 47.121094 C 52.621094 46.488281 53.746094 45.429688 54.691406 43.9375 C 55.640625 42.445312 56.289062 40.574219 56.640625 38.328125 C 56.921875 36.644531 57.0625 33.710938 57.0625 29.535156 C 57.0625 22.726562 57.378906 17.976562 58.007812 15.292969 C 58.640625 12.609375 59.78125 10.449219 61.433594 8.816406 C 63.082031 7.183594 65.488281 5.894531 68.644531 4.945312 C 70.785156 4.316406 74.15625 4 78.753906 4 L 81.546875 4 L 81.546875 16.582031 C 77.648438 16.582031 75.148438 16.804688 74.042969 17.242188 C 72.9375 17.679688 72.121094 18.347656 71.59375 19.242188 C 71.066406 20.136719 70.804688 21.671875 70.804688 23.847656 C 70.804688 26.058594 70.644531 30.253906 70.328125 36.433594 C 70.15625 39.90625 69.699219 42.726562 68.960938 44.882812 C 68.222656 47.042969 67.285156 48.824219 66.144531 50.226562 C 65.003906 51.632812 63.257812 53.089844 60.90625 54.597656 C 62.976562 55.792969 64.671875 57.1875 65.988281 58.785156 C 67.304688 60.382812 68.3125 62.320312 69.015625 64.601562 C 69.714844 66.882812 70.171875 69.9375 70.382812 73.761719 C 70.628906 79.589844 70.75 83.308594 70.75 84.925781 C 70.75 87.242188 71.03125 88.855469 71.59375 89.769531 C 72.15625 90.679688 73.007812 91.375 74.148438 91.847656 C 75.289062 92.324219 77.753906 92.558594 81.546875 92.558594 L 81.546875 105.195312 L 78.753906 105.195312 C 74.015625 105.195312 70.382812 104.816406 67.855469 104.0625 C 65.328125 103.308594 63.195312 102.054688 61.457031 100.300781 C 59.722656 98.542969 58.554688 96.375 57.957031 93.796875 C 57.359375 91.214844 57.0625 87.152344 57.0625 81.609375 C 57.0625 75.148438 56.78125 70.953125 56.21875 69.023438 C 55.445312 66.214844 54.28125 64.207031 52.71875 62.996094 C 51.15625 61.785156 48.761719 61.089844 45.53125 60.917969 " fill-opacity="1" fill-rule="nonzero"/></g><path fill="#eeb30d" d="M 125.410156 30.214844 L 117.167969 30.214844 L 117.167969 21.972656 L 125.410156 21.972656 L 125.410156 30.214844 " fill-opacity="1" fill-rule="nonzero"/><path fill="#eeb30d" d="M 123.464844 46.695312 L 117.167969 46.695312 L 117.167969 40.398438 L 123.464844 40.398438 L 123.464844 46.695312 " fill-opacity="1" fill-rule="nonzero"/><path fill="#eeb30d" d="M 99.488281 36.511719 L 99.488281 30.214844 L 105.785156 30.214844 L 105.785156 36.511719 Z M 115.503906 65.945312 C 113.925781 64.734375 112.75 62.726562 111.976562 59.917969 C 111.554688 58.335938 111.300781 55.296875 111.21875 50.816406 L 105.785156 50.816406 L 105.785156 42.574219 L 111.097656 42.574219 C 110.964844 39.398438 110.6875 36.921875 110.265625 35.144531 C 109.652344 32.566406 108.484375 30.390625 106.765625 28.617188 C 105.046875 26.847656 102.921875 25.589844 100.394531 24.851562 C 97.867188 24.117188 94.234375 23.746094 89.496094 23.746094 L 86.707031 23.746094 L 86.707031 36.332031 C 90.671875 36.332031 93.226562 36.566406 94.367188 37.042969 C 95.507812 37.515625 96.296875 38.191406 96.734375 39.070312 C 97.175781 39.945312 97.410156 41.699219 97.445312 44.332031 C 97.621094 52.6875 97.902344 58.09375 98.289062 60.550781 C 98.882812 64.132812 100.007812 67.078125 101.660156 69.394531 C 102.851562 71.011719 104.746094 72.660156 107.34375 74.34375 C 105.34375 75.503906 103.703125 76.847656 102.421875 78.375 C 101.140625 79.898438 100.113281 81.761719 99.339844 83.953125 C 98.570312 86.148438 98.097656 89.070312 97.917969 92.722656 C 97.640625 98.757812 97.488281 102.847656 97.472656 104.988281 C 97.453125 107.128906 97.175781 108.648438 96.628906 109.542969 C 96.085938 110.4375 95.234375 111.121094 94.078125 111.597656 C 92.917969 112.070312 90.460938 112.308594 86.707031 112.308594 L 86.707031 124.945312 L 89.496094 124.945312 C 94.09375 124.945312 97.464844 124.628906 99.605469 123.996094 C 102.800781 123.046875 105.21875 121.757812 106.871094 120.125 C 108.519531 118.492188 109.652344 116.328125 110.265625 113.625 C 110.878906 110.917969 111.1875 106.164062 111.1875 99.355469 C 111.1875 95.214844 111.328125 92.300781 111.609375 90.613281 C 111.996094 88.367188 112.652344 86.5 113.582031 85.007812 C 114.511719 83.515625 115.628906 82.453125 116.925781 81.824219 C 118.226562 81.191406 120.15625 80.804688 122.71875 80.664062 L 122.71875 68.027344 C 119.488281 67.851562 117.085938 67.15625 115.503906 65.945312 " fill-opacity="1" fill-rule="nonzero"/><g clip-path="url(#3a416e27a8)"><path fill="#eeb30d" d="M 141.476562 14.207031 L 135.179688 14.207031 L 135.179688 7.910156 L 141.476562 7.910156 L 141.476562 14.207031 " fill-opacity="1" fill-rule="nonzero"/></g><path fill="#eeb30d" d="M 109.90625 21.972656 L 98.152344 21.972656 L 98.152344 10.21875 L 109.90625 10.21875 L 109.90625 21.972656 " fill-opacity="1" fill-rule="nonzero"/><g fill="#ffffff" fill-opacity="1"><g transform="translate(22.70168, 167.63023)"><g><path d="M 13.296875 -33.109375 L 17.8125 -33.109375 L 30.640625 0 L 23.15625 0 L 21.171875 -5.484375 L 9.953125 -5.484375 L 8.015625 0 L 0.484375 0 Z M 18.984375 -11.609375 L 15.578125 -21.171875 L 12.140625 -11.609375 Z M 18.984375 -11.609375 "/></g></g></g><g fill="#ffffff" fill-opacity="1"><g transform="translate(62.904196, 167.63023)"><g><path d="M 18.59375 0.671875 C 16.164062 0.671875 13.914062 0.253906 11.84375 -0.578125 C 9.769531 -1.421875 7.976562 -2.59375 6.46875 -4.09375 C 4.96875 -5.601562 3.796875 -7.394531 2.953125 -9.46875 C 2.117188 -11.539062 1.703125 -13.789062 1.703125 -16.21875 C 1.703125 -18.644531 2.128906 -20.890625 2.984375 -22.953125 C 3.835938 -25.023438 5.015625 -26.820312 6.515625 -28.34375 C 8.023438 -29.875 9.804688 -31.066406 11.859375 -31.921875 C 13.921875 -32.773438 16.148438 -33.203125 18.546875 -33.203125 C 21.066406 -33.203125 23.410156 -32.71875 25.578125 -31.75 C 27.753906 -30.78125 29.632812 -29.390625 31.21875 -27.578125 L 26.265625 -22.765625 C 25.328125 -23.867188 24.21875 -24.734375 22.9375 -25.359375 C 21.65625 -25.992188 20.253906 -26.3125 18.734375 -26.3125 C 17.347656 -26.3125 16.070312 -26.0625 14.90625 -25.5625 C 13.738281 -25.0625 12.722656 -24.363281 11.859375 -23.46875 C 11.003906 -22.582031 10.34375 -21.523438 9.875 -20.296875 C 9.40625 -19.066406 9.171875 -17.738281 9.171875 -16.3125 C 9.171875 -14.851562 9.410156 -13.507812 9.890625 -12.28125 C 10.378906 -11.050781 11.050781 -9.984375 11.90625 -9.078125 C 12.769531 -8.171875 13.800781 -7.46875 15 -6.96875 C 16.195312 -6.46875 17.507812 -6.21875 18.9375 -6.21875 C 20.488281 -6.21875 21.910156 -6.539062 23.203125 -7.1875 C 24.492188 -7.832031 25.59375 -8.707031 26.5 -9.8125 L 31.453125 -5.09375 C 29.898438 -3.25 28.03125 -1.828125 25.84375 -0.828125 C 23.664062 0.171875 21.25 0.671875 18.59375 0.671875 Z M 18.59375 0.671875 "/></g></g></g><g fill="#ffffff" fill-opacity="1"><g transform="translate(104.417668, 167.63023)"><g><path d="M 12.375 0.875 C 9.851562 0.875 7.585938 0.304688 5.578125 -0.828125 C 3.578125 -1.960938 1.960938 -3.597656 0.734375 -5.734375 L 5.6875 -9.859375 C 7.363281 -6.847656 9.578125 -5.34375 12.328125 -5.34375 C 13.554688 -5.34375 14.550781 -5.640625 15.3125 -6.234375 C 16.070312 -6.835938 16.453125 -7.625 16.453125 -8.59375 C 16.453125 -9.5 16.078125 -10.28125 15.328125 -10.9375 C 14.585938 -11.601562 13.25 -12.359375 11.3125 -13.203125 C 8.300781 -14.523438 6.109375 -16.003906 4.734375 -17.640625 C 3.359375 -19.273438 2.671875 -21.226562 2.671875 -23.5 C 2.671875 -24.914062 2.925781 -26.222656 3.4375 -27.421875 C 3.957031 -28.617188 4.6875 -29.644531 5.625 -30.5 C 6.570312 -31.363281 7.691406 -32.03125 8.984375 -32.5 C 10.273438 -32.96875 11.695312 -33.203125 13.25 -33.203125 C 17.363281 -33.203125 20.84375 -31.441406 23.6875 -27.921875 L 18.984375 -23.640625 C 18.078125 -24.835938 17.171875 -25.71875 16.265625 -26.28125 C 15.359375 -26.851562 14.351562 -27.140625 13.25 -27.140625 C 12.1875 -27.140625 11.335938 -26.867188 10.703125 -26.328125 C 10.078125 -25.796875 9.765625 -25.078125 9.765625 -24.171875 C 9.765625 -23.171875 10.179688 -22.347656 11.015625 -21.703125 C 11.859375 -21.054688 13.125 -20.359375 14.8125 -19.609375 C 17.882812 -18.253906 20.109375 -16.742188 21.484375 -15.078125 C 22.859375 -13.410156 23.546875 -11.441406 23.546875 -9.171875 C 23.546875 -7.679688 23.269531 -6.320312 22.71875 -5.09375 C 22.164062 -3.863281 21.40625 -2.800781 20.4375 -1.90625 C 19.46875 -1.019531 18.296875 -0.335938 16.921875 0.140625 C 15.546875 0.628906 14.03125 0.875 12.375 0.875 Z M 12.375 0.875 "/></g></g></g><g fill="#ffffff" fill-opacity="1"><g transform="translate(138.890834, 167.63023)"><g><path d="M 12.375 0.875 C 9.851562 0.875 7.585938 0.304688 5.578125 -0.828125 C 3.578125 -1.960938 1.960938 -3.597656 0.734375 -5.734375 L 5.6875 -9.859375 C 7.363281 -6.847656 9.578125 -5.34375 12.328125 -5.34375 C 13.554688 -5.34375 14.550781 -5.640625 15.3125 -6.234375 C 16.070312 -6.835938 16.453125 -7.625 16.453125 -8.59375 C 16.453125 -9.5 16.078125 -10.28125 15.328125 -10.9375 C 14.585938 -11.601562 13.25 -12.359375 11.3125 -13.203125 C 8.300781 -14.523438 6.109375 -16.003906 4.734375 -17.640625 C 3.359375 -19.273438 2.671875 -21.226562 2.671875 -23.5 C 2.671875 -24.914062 2.925781 -26.222656 3.4375 -27.421875 C 3.957031 -28.617188 4.6875 -29.644531 5.625 -30.5 C 6.570312 -31.363281 7.691406 -32.03125 8.984375 -32.5 C 10.273438 -32.96875 11.695312 -33.203125 13.25 -33.203125 C 17.363281 -33.203125 20.84375 -31.441406 23.6875 -27.921875 L 18.984375 -23.640625 C 18.078125 -24.835938 17.171875 -25.71875 16.265625 -26.28125 C 15.359375 -26.851562 14.351562 -27.140625 13.25 -27.140625 C 12.1875 -27.140625 11.335938 -26.867188 10.703125 -26.328125 C 10.078125 -25.796875 9.765625 -25.078125 9.765625 -24.171875 C 9.765625 -23.171875 10.179688 -22.347656 11.015625 -21.703125 C 11.859375 -21.054688 13.125 -20.359375 14.8125 -19.609375 C 17.882812 -18.253906 20.109375 -16.742188 21.484375 -15.078125 C 22.859375 -13.410156 23.546875 -11.441406 23.546875 -9.171875 C 23.546875 -7.679688 23.269531 -6.320312 22.71875 -5.09375 C 22.164062 -3.863281 21.40625 -2.800781 20.4375 -1.90625 C 19.46875 -1.019531 18.296875 -0.335938 16.921875 0.140625 C 15.546875 0.628906 14.03125 0.875 12.375 0.875 Z M 12.375 0.875 "/></g></g></g></svg>