<svg width="32" height="24" viewBox="0 0 32 24" fill="none" xmlns="http://www.w3.org/2000/svg">
<g clip-path="url(#clip0_395_380)">
<path fill-rule="evenodd" clip-rule="evenodd" d="M23.6366 23.3933C23.6366 23.3933 22.6495 22.2143 21.8269 21.1996C25.4189 20.1851 26.79 17.964 26.79 17.964C25.6657 18.7044 24.5963 19.2254 23.6366 19.5818C22.2655 20.1576 20.9493 20.5141 19.6606 20.761C17.0282 21.2546 14.6152 21.1174 12.5586 20.7336C10.9956 20.4319 9.652 20.0206 8.52775 19.5544C7.89706 19.3077 7.21156 19.006 6.52606 18.6221C6.44381 18.5673 6.3615 18.5398 6.27931 18.485C6.2245 18.4576 6.19706 18.4301 6.16962 18.4301C5.676 18.1559 5.40181 17.964 5.40181 17.964C5.40181 17.964 6.71806 20.1302 10.2005 21.1722C9.37781 22.2143 8.36331 23.4208 8.36331 23.4208C2.30338 23.2288 0 19.2802 0 19.2802C0 10.533 3.94856 3.43115 3.94856 3.43115C7.89712 0.497146 11.6264 0.579396 11.6264 0.579396L11.9006 0.908396C6.96494 2.3069 4.71631 4.47315 4.71631 4.47315C4.71631 4.47315 5.31962 4.14408 6.33419 3.70533C9.26825 2.41652 11.5989 2.08752 12.5587 1.97783C12.7232 1.9504 12.8604 1.92296 13.0248 1.92296C14.6975 1.70358 16.5896 1.64877 18.5638 1.86808C21.1688 2.16971 23.9657 2.93752 26.8174 4.47308C26.8174 4.47308 24.6512 2.41646 19.9897 1.01802L20.3736 0.579334C20.3736 0.579334 24.1302 0.497021 28.0514 3.43108C28.0514 3.43108 32 10.533 32 19.2801C32 19.2528 29.6966 23.2013 23.6367 23.3933L23.6366 23.3933ZM20.8945 10.6975C19.3316 10.6975 18.0976 12.0411 18.0976 13.7139C18.0976 15.3866 19.359 16.7301 20.8945 16.7301C22.4575 16.7301 23.6915 15.3866 23.6915 13.7139C23.6915 12.0411 22.4301 10.6975 20.8945 10.6975ZM10.8861 10.6975C9.32306 10.6975 8.08912 12.0411 8.08912 13.7139C8.08912 15.3866 9.3505 16.7301 10.8861 16.7301C12.449 16.7301 13.6829 15.3866 13.6829 13.7139C13.7104 12.0412 12.4491 10.6975 10.8861 10.6975Z" fill="white"/>
</g>
<defs>
<clipPath id="clip0_395_380">
<rect width="32" height="22.8417" fill="white" transform="translate(0 0.579102)"/>
</clipPath>
</defs>
</svg>
