<svg width="32" height="32" viewBox="0 0 32 32" fill="none" xmlns="http://www.w3.org/2000/svg">
<g clip-path="url(#clip0_395_378)">
<path d="M32 16.0586C32 7.22203 24.8366 0.0585938 16 0.0585938C7.16344 0.0585938 0 7.22203 0 16.0586C0 23.5623 5.16575 29.8584 12.1348 31.5874V20.9479H8.83544V16.0586H12.1348V13.9518C12.1348 8.50591 14.5993 5.98172 19.9459 5.98172C20.9595 5.98172 22.7085 6.18047 23.4241 6.37922V10.8115C23.0464 10.7718 22.3905 10.7518 21.5756 10.7518C18.9521 10.7518 17.9384 11.7457 17.9384 14.3294V16.0586H23.1646L22.2668 20.9479H17.9384V31.9414C25.8607 30.9845 32 24.2389 32 16.0586Z" fill="white"/>
</g>
<defs>
<clipPath id="clip0_395_378">
<rect width="32" height="31.8828" fill="white" transform="translate(0 0.0585938)"/>
</clipPath>
</defs>
</svg>
