<svg xmlns="http://www.w3.org/2000/svg" xmlns:xlink="http://www.w3.org/1999/xlink" width="500" zoomAndPan="magnify" viewBox="0 0 375 374.999991" height="500" preserveAspectRatio="xMidYMid meet" version="1.0"><defs><clipPath id="678bbf33a8"><path d="M 7.3125 30.738281 L 367.3125 30.738281 L 367.3125 344.238281 L 7.3125 344.238281 Z M 7.3125 30.738281 " clip-rule="nonzero"/></clipPath></defs><g clip-path="url(#678bbf33a8)"><path fill="#ffff00" d="M 317.09375 213.789062 C 299.359375 213.789062 283.785156 222.929688 274.753906 236.738281 L 231.902344 213.390625 C 235.460938 205.613281 237.496094 196.992188 237.496094 187.878906 C 237.496094 181.066406 236.34375 174.53125 234.292969 168.40625 L 287.867188 146.863281 C 293.542969 157.164062 304.5 164.148438 317.089844 164.148438 C 335.511719 164.148438 350.445312 149.214844 350.445312 130.792969 C 350.445312 112.375 335.511719 97.441406 317.089844 97.441406 C 298.671875 97.441406 283.738281 112.375 283.738281 130.792969 C 283.738281 133.78125 284.167969 136.664062 284.90625 139.421875 L 231.242188 161.003906 C 223.039062 144.191406 207.445312 131.652344 188.640625 127.734375 L 192.972656 97.417969 C 211.171875 97.164062 225.851562 82.351562 225.851562 64.089844 C 225.855469 45.671875 210.921875 30.738281 192.5 30.738281 C 174.082031 30.738281 159.148438 45.671875 159.148438 64.089844 C 159.148438 79.925781 170.199219 93.160156 185.003906 96.566406 L 180.699219 126.667969 C 179.160156 126.550781 177.621094 126.429688 176.050781 126.429688 C 157.46875 126.429688 140.847656 134.714844 129.582031 147.75 L 101.164062 126.488281 C 106.140625 118.625 109.0625 109.332031 109.0625 99.339844 C 109.0625 71.242188 86.285156 48.464844 58.191406 48.464844 C 30.09375 48.464844 7.316406 71.242188 7.316406 99.339844 C 7.316406 127.4375 30.09375 150.210938 58.191406 150.210938 C 73.414062 150.210938 87.035156 143.492188 96.359375 132.894531 L 124.730469 154.121094 C 118.34375 163.8125 114.601562 175.402344 114.601562 187.878906 C 114.601562 208.421875 124.71875 226.558594 140.199219 237.71875 L 121.128906 268.464844 C 115.832031 265.871094 109.894531 264.371094 103.597656 264.371094 C 81.527344 264.371094 63.636719 282.261719 63.636719 304.328125 C 63.636719 326.398438 81.527344 344.289062 103.597656 344.289062 C 125.664062 344.289062 143.554688 326.398438 143.554688 304.328125 C 143.554688 291.429688 137.417969 279.992188 127.929688 272.6875 L 146.957031 242.007812 C 155.617188 246.671875 165.519531 249.328125 176.046875 249.328125 C 198.011719 249.328125 217.230469 237.765625 228.09375 220.4375 L 270.921875 243.773438 C 268.109375 250.070312 266.507812 257.027344 266.507812 264.375 C 266.507812 292.308594 289.152344 314.957031 317.089844 314.957031 C 345.027344 314.957031 367.675781 292.308594 367.675781 264.371094 C 367.675781 236.4375 345.027344 213.789062 317.09375 213.789062 Z M 307.738281 113.265625 C 307.710938 108.320312 311.921875 104.042969 317.089844 103.910156 C 322.261719 104.042969 326.472656 108.320312 326.445312 113.265625 C 326.445312 114.15625 326.445312 115.046875 326.445312 115.9375 C 326.449219 120.839844 322.480469 127.519531 317.089844 127.613281 C 311.699219 127.519531 307.734375 120.839844 307.738281 115.9375 C 307.738281 115.046875 307.738281 114.152344 307.738281 113.265625 Z M 297.714844 146.085938 C 297.714844 138.472656 303.691406 132.269531 311.207031 131.871094 L 322.980469 131.871094 C 330.492188 132.269531 336.46875 138.46875 336.46875 146.085938 L 336.46875 148.644531 C 336.46875 150.429688 335.023438 151.875 333.238281 151.875 L 300.945312 151.875 C 299.160156 151.875 297.714844 150.429688 297.714844 148.644531 Z M 183.144531 46.558594 C 183.117188 41.617188 187.332031 37.339844 192.5 37.207031 C 197.667969 37.339844 201.882812 41.617188 201.855469 46.558594 C 201.855469 47.449219 201.855469 48.339844 201.855469 49.230469 C 201.859375 54.136719 197.890625 60.816406 192.5 60.910156 C 187.109375 60.816406 183.140625 54.136719 183.144531 49.230469 C 183.144531 48.339844 183.144531 47.449219 183.144531 46.558594 Z M 173.125 81.941406 L 173.125 79.378906 C 173.125 71.765625 179.097656 65.566406 186.613281 65.164062 L 198.386719 65.164062 C 205.902344 65.5625 211.875 71.765625 211.875 79.378906 L 211.875 81.941406 C 211.875 83.726562 210.429688 85.171875 208.648438 85.171875 L 176.351562 85.171875 C 174.570312 85.171875 173.125 83.726562 173.125 81.941406 Z M 43.921875 72.597656 C 43.878906 65.058594 50.304688 58.535156 58.191406 58.332031 C 66.074219 58.535156 72.5 65.058594 72.457031 72.597656 C 72.457031 73.957031 72.457031 75.316406 72.457031 76.675781 C 72.464844 84.15625 66.410156 94.34375 58.191406 94.488281 C 49.96875 94.34375 43.914062 84.15625 43.921875 76.675781 C 43.921875 75.316406 43.921875 73.957031 43.921875 72.597656 Z M 87.746094 126.570312 C 87.746094 129.289062 85.539062 131.496094 82.820312 131.496094 L 33.558594 131.496094 C 30.839844 131.496094 28.632812 129.289062 28.632812 126.570312 L 28.632812 122.664062 C 28.632812 111.046875 37.75 101.585938 49.210938 100.976562 L 67.167969 100.976562 C 78.628906 101.585938 87.746094 111.046875 87.746094 122.664062 Z M 92.390625 283.324219 C 92.355469 277.402344 97.402344 272.277344 103.597656 272.117188 C 109.789062 272.277344 114.839844 277.402344 114.804688 283.324219 C 114.804688 284.390625 114.804688 285.460938 114.804688 286.527344 C 114.808594 292.402344 110.054688 300.40625 103.597656 300.519531 C 97.136719 300.40625 92.386719 292.402344 92.390625 286.527344 C 92.390625 285.460938 92.390625 284.394531 92.390625 283.324219 Z M 126.8125 325.71875 C 126.8125 327.855469 125.078125 329.585938 122.941406 329.585938 L 84.253906 329.585938 C 82.113281 329.585938 80.382812 327.855469 80.382812 325.71875 L 80.382812 322.648438 C 80.382812 313.523438 87.542969 306.09375 96.546875 305.617188 L 110.648438 305.617188 C 119.652344 306.09375 126.808594 313.527344 126.808594 322.648438 L 126.808594 325.71875 Z M 158.816406 155.578125 C 158.761719 146.46875 166.527344 138.589844 176.050781 138.34375 C 185.574219 138.589844 193.335938 146.46875 193.285156 155.578125 C 193.285156 157.21875 193.285156 158.863281 193.285156 160.503906 C 193.292969 169.539062 185.980469 181.84375 176.050781 182.019531 C 166.117188 181.84375 158.804688 169.539062 158.816406 160.503906 C 158.816406 158.863281 158.816406 157.222656 158.816406 155.578125 Z M 211.75 220.769531 C 211.75 224.054688 209.082031 226.71875 205.796875 226.71875 L 146.300781 226.71875 C 143.011719 226.71875 140.351562 224.054688 140.351562 220.769531 L 140.351562 216.050781 C 140.351562 202.023438 151.359375 190.59375 165.207031 189.859375 L 186.894531 189.859375 C 200.738281 190.59375 211.75 202.023438 211.75 216.050781 Z M 302.90625 237.785156 C 302.863281 230.285156 309.253906 223.800781 317.09375 223.597656 C 324.933594 223.796875 331.320312 230.285156 331.277344 237.785156 C 331.277344 239.136719 331.277344 240.484375 331.277344 241.835938 C 331.285156 249.273438 325.269531 259.402344 317.09375 259.546875 C 308.917969 259.402344 302.898438 249.273438 302.90625 241.835938 C 302.90625 240.484375 302.90625 239.136719 302.90625 237.785156 Z M 346.480469 291.445312 C 346.480469 294.152344 344.285156 296.34375 341.582031 296.34375 L 292.605469 296.34375 C 289.898438 296.34375 287.707031 294.148438 287.707031 291.445312 L 287.707031 287.5625 C 287.707031 276.011719 296.769531 266.605469 308.164062 266 L 326.019531 266 C 337.417969 266.605469 346.480469 276.011719 346.480469 287.5625 Z M 346.480469 291.445312 " fill-opacity="1" fill-rule="nonzero"/></g></svg>