<svg xmlns="http://www.w3.org/2000/svg" xmlns:xlink="http://www.w3.org/1999/xlink" width="500" zoomAndPan="magnify" viewBox="0 0 375 374.999991" height="500" preserveAspectRatio="xMidYMid meet" version="1.0"><defs><clipPath id="09ead59bc3"><path d="M 8 28 L 366.984375 28 L 366.984375 346.707031 L 8 346.707031 Z M 8 28 " clip-rule="nonzero"/></clipPath></defs><g clip-path="url(#09ead59bc3)"><path fill="#ffe600" d="M 188.355469 29.554688 L 197.417969 53.421875 C 197.6875 54.136719 198.324219 54.597656 199.089844 54.636719 L 224.585938 55.878906 C 226.320312 55.960938 227.03125 58.148438 225.675781 59.234375 L 205.78125 75.226562 C 205.183594 75.707031 204.941406 76.453125 205.140625 77.195312 L 211.835938 101.824219 C 212.292969 103.5 210.4375 104.851562 208.984375 103.898438 L 187.625 89.917969 C 186.984375 89.5 186.199219 89.5 185.558594 89.917969 L 164.199219 103.902344 C 162.746094 104.851562 160.890625 103.5 161.34375 101.828125 L 168.042969 77.195312 C 168.242188 76.453125 168 75.707031 167.402344 75.226562 L 147.503906 59.234375 C 146.152344 58.148438 146.863281 55.960938 148.597656 55.878906 L 174.09375 54.636719 C 174.859375 54.597656 175.492188 54.136719 175.765625 53.421875 L 184.824219 29.554688 C 185.4375 27.941406 187.742188 27.941406 188.355469 29.554688 Z M 306.671875 225.925781 C 340.109375 225.925781 367.21875 253.035156 367.21875 286.472656 C 367.21875 319.914062 340.109375 347.023438 306.671875 347.023438 C 273.230469 347.023438 246.121094 319.914062 246.121094 286.472656 C 246.121094 253.03125 273.230469 225.925781 306.671875 225.925781 Z M 298.71875 291.8125 L 285.1875 278.285156 C 281.683594 274.777344 275.996094 274.777344 272.488281 278.285156 C 268.980469 281.789062 268.980469 287.480469 272.488281 290.984375 L 292.386719 310.882812 C 295.890625 314.390625 301.582031 314.390625 305.085938 310.882812 C 317.082031 298.890625 328.9375 286.761719 340.878906 274.710938 C 344.359375 271.199219 344.347656 265.527344 340.839844 262.039062 C 337.328125 258.546875 331.644531 258.558594 328.160156 262.078125 Z M 186.59375 125.691406 C 211.425781 125.691406 231.558594 145.824219 231.558594 170.65625 C 231.558594 195.492188 211.425781 215.621094 186.59375 215.621094 C 161.757812 215.621094 141.625 195.492188 141.625 170.65625 C 141.625 145.824219 161.757812 125.691406 186.59375 125.691406 Z M 106.917969 302.464844 L 235.9375 302.464844 C 234.777344 297.316406 234.164062 291.96875 234.164062 286.472656 C 234.164062 271.570312 238.664062 257.714844 246.375 246.195312 C 230.582031 231.847656 209.609375 223.097656 186.59375 223.097656 C 143.855469 223.097656 108.160156 253.246094 99.609375 293.433594 C 98.613281 298.109375 102.140625 302.464844 106.917969 302.464844 Z M 364.304688 133.175781 L 348.167969 152.957031 C 347.679688 153.550781 347.597656 154.328125 347.949219 155.011719 L 359.621094 177.714844 C 360.414062 179.257812 358.878906 180.964844 357.261719 180.335938 L 333.460938 171.101562 C 332.746094 170.824219 331.980469 170.988281 331.441406 171.53125 L 313.457031 189.648438 C 312.234375 190.878906 310.136719 189.945312 310.234375 188.210938 L 311.660156 162.726562 C 311.703125 161.960938 311.3125 161.28125 310.628906 160.933594 L 287.839844 149.429688 C 286.292969 148.648438 286.53125 146.363281 288.210938 145.917969 L 312.890625 139.402344 C 313.632812 139.207031 314.15625 138.625 314.273438 137.867188 L 318.175781 112.640625 C 318.441406 110.921875 320.6875 110.445312 321.628906 111.90625 L 335.453125 133.367188 C 335.867188 134.011719 336.582031 134.328125 337.339844 134.207031 L 362.539062 130.121094 C 364.242188 129.84375 365.394531 131.839844 364.304688 133.175781 Z M 290.210938 57.792969 C 290.488281 56.089844 288.492188 54.9375 287.15625 56.027344 L 267.375 72.164062 C 266.78125 72.652344 266.003906 72.734375 265.320312 72.382812 L 242.617188 60.710938 C 241.074219 59.914062 239.367188 61.453125 239.996094 63.070312 L 249.230469 86.867188 C 249.507812 87.585938 249.34375 88.351562 248.800781 88.890625 L 230.683594 106.875 C 229.453125 108.097656 230.386719 110.195312 232.121094 110.101562 L 257.605469 108.671875 C 258.371094 108.628906 259.050781 109.019531 259.398438 109.703125 L 270.902344 132.492188 C 271.683594 134.042969 273.96875 133.800781 274.414062 132.121094 L 280.929688 107.441406 C 281.125 106.699219 281.707031 106.175781 282.464844 106.058594 L 307.691406 102.15625 C 309.410156 101.890625 309.886719 99.644531 308.425781 98.707031 L 286.96875 84.882812 C 286.324219 84.464844 286.003906 83.75 286.128906 82.992188 Z M 10.644531 130.121094 L 35.84375 134.207031 C 36.597656 134.328125 37.316406 134.007812 37.730469 133.363281 L 51.554688 111.90625 C 52.496094 110.445312 54.742188 110.921875 55.007812 112.640625 L 58.910156 137.867188 C 59.027344 138.625 59.550781 139.207031 60.292969 139.402344 L 84.972656 145.921875 C 86.652344 146.363281 86.890625 148.648438 85.34375 149.429688 L 62.554688 160.9375 C 61.871094 161.28125 61.480469 161.960938 61.519531 162.726562 L 62.949219 188.214844 C 63.046875 189.945312 60.949219 190.882812 59.726562 189.648438 L 41.742188 171.53125 C 41.199219 170.988281 40.433594 170.824219 39.71875 171.101562 L 15.921875 180.335938 C 14.304688 180.964844 12.765625 179.257812 13.558594 177.714844 L 25.230469 155.011719 C 25.582031 154.328125 25.5 153.550781 25.015625 152.957031 L 8.878906 133.175781 C 7.789062 131.839844 8.941406 129.84375 10.644531 130.121094 Z M 86.027344 56.027344 C 84.6875 54.9375 82.695312 56.089844 82.96875 57.792969 L 87.054688 82.992188 C 87.179688 83.746094 86.859375 84.464844 86.214844 84.878906 L 64.753906 98.703125 C 63.296875 99.644531 63.773438 101.890625 65.488281 102.15625 L 90.714844 106.058594 C 91.476562 106.175781 92.058594 106.699219 92.253906 107.441406 L 98.769531 132.121094 C 99.214844 133.800781 101.496094 134.039062 102.28125 132.488281 L 113.785156 109.703125 C 114.132812 109.019531 114.808594 108.625 115.578125 108.667969 L 141.0625 110.097656 C 142.796875 110.195312 143.730469 108.097656 142.496094 106.875 L 124.382812 88.890625 C 123.835938 88.351562 123.675781 87.582031 123.953125 86.867188 L 133.1875 63.070312 C 133.816406 61.453125 132.109375 59.914062 130.566406 60.707031 L 107.863281 72.378906 C 107.179688 72.730469 106.402344 72.648438 105.804688 72.164062 Z M 86.027344 56.027344 " fill-opacity="1" fill-rule="evenodd"/></g></svg>