<svg xmlns="http://www.w3.org/2000/svg" xmlns:xlink="http://www.w3.org/1999/xlink" width="500" zoomAndPan="magnify" viewBox="0 0 375 374.999991" height="500" preserveAspectRatio="xMidYMid meet" version="1.0"><defs><clipPath id="b6ec9a4cbf"><path d="M 157 330 L 174 330 L 174 374.929688 L 157 374.929688 Z M 157 330 " clip-rule="nonzero"/></clipPath><clipPath id="b378bb6939"><path d="M 201 330 L 218 330 L 218 374.929688 L 201 374.929688 Z M 201 330 " clip-rule="nonzero"/></clipPath><clipPath id="eed988ad1c"><path d="M 319 180 L 354.921875 180 L 354.921875 198 L 319 198 Z M 319 180 " clip-rule="nonzero"/></clipPath><clipPath id="d7aa6bf4ee"><path d="M 180 20.929688 L 197 20.929688 L 197 56 L 180 56 Z M 180 20.929688 " clip-rule="nonzero"/></clipPath><clipPath id="36efc15df5"><path d="M 20.421875 178 L 56 178 L 56 196 L 20.421875 196 Z M 20.421875 178 " clip-rule="nonzero"/></clipPath></defs><path fill="#1f1f1f" d="M 187.601562 62.414062 C 220.164062 62.414062 249.824219 75.6875 271.191406 97.050781 C 292.554688 118.417969 305.828125 148.078125 305.828125 180.640625 C 305.828125 232.703125 288.40625 246.804688 270.359375 261.324219 C 254.804688 273.976562 238.832031 287.046875 238.832031 338.484375 C 238.832031 343.046875 235.101562 346.78125 230.535156 346.78125 L 144.460938 346.78125 C 139.894531 346.78125 136.164062 343.046875 136.164062 338.484375 C 136.164062 287.046875 120.191406 273.976562 104.636719 261.324219 C 86.796875 246.804688 69.167969 232.703125 69.167969 180.640625 C 69.167969 148.078125 82.441406 118.417969 103.804688 97.050781 C 125.375 75.6875 154.828125 62.414062 187.601562 62.414062 Z M 259.367188 108.875 C 241.113281 90.414062 215.601562 79.007812 187.601562 79.007812 C 159.394531 79.007812 134.089844 90.414062 115.628906 108.875 C 97.167969 127.128906 85.761719 152.640625 85.761719 180.640625 C 85.761719 224.820312 100.28125 236.644531 115.007812 248.464844 C 132.84375 262.984375 150.890625 277.710938 152.753906 330.1875 L 222.449219 330.1875 C 224.105469 277.710938 242.152344 262.984375 259.988281 248.464844 C 274.714844 236.644531 289.234375 224.820312 289.234375 180.640625 C 289.234375 152.640625 277.828125 127.128906 259.367188 108.875 Z M 259.367188 108.875 " fill-opacity="1" fill-rule="nonzero"/><g clip-path="url(#b6ec9a4cbf)"><path fill="#1f1f1f" d="M 173.910156 338.484375 C 173.910156 333.921875 170.386719 330.1875 165.617188 330.1875 C 161.050781 330.1875 157.320312 333.921875 157.320312 338.484375 L 157.320312 366.691406 C 157.320312 371.253906 161.050781 374.988281 165.617188 374.988281 C 170.386719 374.988281 173.910156 371.253906 173.910156 366.691406 Z M 173.910156 338.484375 " fill-opacity="1" fill-rule="nonzero"/></g><g clip-path="url(#b378bb6939)"><path fill="#1f1f1f" d="M 217.675781 338.484375 C 217.675781 333.921875 213.941406 330.1875 209.378906 330.1875 C 204.816406 330.1875 201.082031 333.921875 201.082031 338.484375 L 201.082031 366.691406 C 201.082031 371.253906 204.816406 374.988281 209.378906 374.988281 C 213.941406 374.988281 217.675781 371.253906 217.675781 366.691406 Z M 217.675781 338.484375 " fill-opacity="1" fill-rule="nonzero"/></g><path fill="#1f1f1f" d="M 155.039062 147.246094 L 219.957031 147.246094 C 224.519531 147.246094 228.253906 150.980469 228.253906 155.542969 L 228.253906 220.671875 C 228.253906 225.234375 224.519531 228.96875 219.957031 228.96875 L 155.039062 228.96875 C 150.472656 228.96875 146.742188 225.234375 146.742188 220.671875 L 146.742188 155.542969 C 146.742188 150.980469 150.472656 147.246094 155.039062 147.246094 Z M 211.660156 163.839844 L 163.332031 163.839844 L 163.332031 212.375 L 211.660156 212.375 Z M 211.660156 163.839844 " fill-opacity="1" fill-rule="nonzero"/><path fill="#1f1f1f" d="M 162.917969 155.542969 C 162.917969 160.105469 166.652344 163.839844 171.214844 163.839844 C 175.777344 163.839844 179.511719 160.105469 179.511719 155.542969 L 179.511719 128.371094 C 179.511719 123.808594 175.777344 120.074219 171.214844 120.074219 C 166.652344 120.074219 162.917969 123.808594 162.917969 128.371094 Z M 162.917969 155.542969 " fill-opacity="1" fill-rule="nonzero"/><path fill="#1f1f1f" d="M 195.691406 155.542969 C 195.691406 160.105469 199.214844 163.839844 203.988281 163.839844 C 208.550781 163.839844 212.285156 160.105469 212.285156 155.542969 L 212.285156 128.371094 C 212.285156 123.808594 208.550781 120.074219 203.988281 120.074219 C 199.214844 120.074219 195.691406 123.808594 195.691406 128.371094 Z M 195.691406 155.542969 " fill-opacity="1" fill-rule="nonzero"/><path fill="#1f1f1f" d="M 219.957031 163.425781 C 215.394531 163.425781 211.660156 167.160156 211.660156 171.722656 C 211.660156 176.285156 215.394531 180.019531 219.957031 180.019531 L 247.335938 180.019531 C 251.898438 180.019531 255.632812 176.285156 255.632812 171.722656 C 255.632812 167.160156 251.898438 163.425781 247.335938 163.425781 Z M 219.957031 163.425781 " fill-opacity="1" fill-rule="nonzero"/><path fill="#1f1f1f" d="M 219.957031 196.195312 C 215.394531 196.195312 211.660156 199.929688 211.660156 204.492188 C 211.660156 209.058594 215.394531 212.789062 219.957031 212.789062 L 247.335938 212.789062 C 251.898438 212.789062 255.632812 209.058594 255.632812 204.492188 C 255.632812 199.929688 251.898438 196.195312 247.335938 196.195312 Z M 219.957031 196.195312 " fill-opacity="1" fill-rule="nonzero"/><path fill="#1f1f1f" d="M 212.285156 220.671875 C 212.285156 215.902344 208.550781 212.375 203.988281 212.375 C 199.214844 212.375 195.691406 215.902344 195.691406 220.671875 L 195.691406 247.84375 C 195.691406 252.40625 199.214844 256.140625 203.988281 256.140625 C 208.550781 256.140625 212.285156 252.40625 212.285156 247.84375 Z M 212.285156 220.671875 " fill-opacity="1" fill-rule="nonzero"/><path fill="#1f1f1f" d="M 179.511719 220.671875 C 179.511719 215.902344 175.777344 212.375 171.214844 212.375 C 166.652344 212.375 162.917969 215.902344 162.917969 220.671875 L 162.917969 247.84375 C 162.917969 252.40625 166.652344 256.140625 171.214844 256.140625 C 175.777344 256.140625 179.511719 252.40625 179.511719 247.84375 Z M 179.511719 220.671875 " fill-opacity="1" fill-rule="nonzero"/><path fill="#1f1f1f" d="M 155.039062 212.789062 C 159.601562 212.789062 163.332031 209.058594 163.332031 204.492188 C 163.332031 199.929688 159.601562 196.195312 155.039062 196.195312 L 127.867188 196.195312 C 123.300781 196.195312 119.570312 199.929688 119.570312 204.492188 C 119.570312 209.058594 123.300781 212.789062 127.867188 212.789062 Z M 155.039062 212.789062 " fill-opacity="1" fill-rule="nonzero"/><path fill="#1f1f1f" d="M 155.039062 180.019531 C 159.601562 180.019531 163.332031 176.285156 163.332031 171.722656 C 163.332031 167.160156 159.601562 163.425781 155.039062 163.425781 L 127.867188 163.425781 C 123.300781 163.425781 119.570312 167.160156 119.570312 171.722656 C 119.570312 176.285156 123.300781 180.019531 127.867188 180.019531 Z M 155.039062 180.019531 " fill-opacity="1" fill-rule="nonzero"/><g clip-path="url(#eed988ad1c)"><path fill="#1f1f1f" d="M 346.273438 197.234375 C 350.835938 197.234375 354.570312 193.5 354.570312 188.9375 C 354.570312 184.375 350.835938 180.640625 346.273438 180.640625 L 328.023438 180.640625 C 323.457031 180.640625 319.726562 184.375 319.726562 188.9375 C 319.726562 193.5 323.457031 197.234375 328.023438 197.234375 Z M 346.273438 197.234375 " fill-opacity="1" fill-rule="nonzero"/></g><path fill="#1f1f1f" d="M 329.679688 116.550781 C 333.621094 114.269531 334.867188 109.289062 332.585938 105.347656 C 330.304688 101.40625 325.324219 99.957031 321.382812 102.238281 L 305.414062 111.570312 C 301.472656 113.851562 300.226562 118.832031 302.507812 122.773438 C 304.792969 126.710938 309.769531 128.164062 313.710938 125.882812 Z M 329.679688 116.550781 " fill-opacity="1" fill-rule="nonzero"/><path fill="#1f1f1f" d="M 274.921875 55.152344 C 277.203125 51.214844 275.753906 46.234375 271.8125 43.953125 C 267.871094 41.671875 262.894531 42.917969 260.613281 46.859375 L 251.277344 62.828125 C 248.996094 66.769531 250.449219 71.746094 254.390625 74.027344 C 258.332031 76.3125 263.515625 75.066406 265.796875 71.125 Z M 274.921875 55.152344 " fill-opacity="1" fill-rule="nonzero"/><g clip-path="url(#d7aa6bf4ee)"><path fill="#1f1f1f" d="M 196.726562 29.226562 C 196.726562 24.664062 192.996094 20.929688 188.429688 20.929688 C 183.867188 20.929688 180.132812 24.664062 180.132812 29.226562 L 180.132812 47.6875 C 180.132812 52.25 183.867188 55.984375 188.429688 55.984375 C 192.996094 55.984375 196.726562 52.25 196.726562 47.6875 Z M 196.726562 29.226562 " fill-opacity="1" fill-rule="nonzero"/></g><path fill="#1f1f1f" d="M 116.042969 46.027344 C 113.761719 42.085938 108.785156 40.636719 104.84375 42.917969 C 100.902344 45.199219 99.449219 50.382812 101.730469 54.324219 L 110.859375 70.089844 C 113.140625 74.027344 118.324219 75.480469 122.265625 73.199219 C 126.207031 70.917969 127.449219 65.734375 125.167969 61.792969 Z M 116.042969 46.027344 " fill-opacity="1" fill-rule="nonzero"/><path fill="#1f1f1f" d="M 54.648438 100.785156 C 50.707031 98.503906 45.523438 99.75 43.238281 103.691406 C 40.957031 107.628906 42.410156 112.816406 46.351562 115.097656 L 62.113281 124.222656 C 66.261719 126.503906 71.242188 125.261719 73.523438 121.320312 C 75.804688 117.171875 74.558594 112.195312 70.410156 109.910156 Z M 54.648438 100.785156 " fill-opacity="1" fill-rule="nonzero"/><g clip-path="url(#36efc15df5)"><path fill="#1f1f1f" d="M 28.722656 178.980469 C 24.15625 178.980469 20.425781 182.507812 20.425781 187.277344 C 20.425781 191.839844 24.15625 195.574219 28.722656 195.574219 L 47.179688 195.574219 C 51.746094 195.574219 55.476562 191.839844 55.476562 187.277344 C 55.476562 182.507812 51.746094 178.980469 47.179688 178.980469 Z M 28.722656 178.980469 " fill-opacity="1" fill-rule="nonzero"/></g><path fill="#ffffff" d="M 163.332031 163.839844 L 211.660156 163.839844 L 211.660156 212.375 L 163.332031 212.375 Z M 163.332031 163.839844 " fill-opacity="1" fill-rule="evenodd"/><path fill="#ffe600" d="M 195.691406 128.371094 C 195.691406 123.808594 199.214844 120.074219 203.988281 120.074219 C 208.550781 120.074219 212.285156 123.808594 212.285156 128.371094 L 212.285156 147.246094 L 219.957031 147.246094 C 224.519531 147.246094 228.253906 150.980469 228.253906 155.542969 L 228.253906 163.425781 L 247.335938 163.425781 C 251.898438 163.425781 255.632812 167.160156 255.632812 171.722656 C 255.632812 176.285156 251.898438 180.019531 247.335938 180.019531 L 228.253906 180.019531 L 228.253906 196.195312 L 247.335938 196.195312 C 251.898438 196.195312 255.632812 199.929688 255.632812 204.492188 C 255.632812 209.058594 251.898438 212.789062 247.335938 212.789062 L 228.253906 212.789062 L 228.253906 220.671875 C 228.253906 225.234375 224.519531 228.96875 219.957031 228.96875 L 212.285156 228.96875 L 212.285156 247.84375 C 212.285156 252.40625 208.550781 256.140625 203.988281 256.140625 C 199.214844 256.140625 195.691406 252.40625 195.691406 247.84375 L 195.691406 228.96875 L 179.511719 228.96875 L 179.511719 247.84375 C 179.511719 252.40625 175.777344 256.140625 171.214844 256.140625 C 166.652344 256.140625 162.917969 252.40625 162.917969 247.84375 L 162.917969 228.96875 L 155.039062 228.96875 C 150.472656 228.96875 146.742188 225.234375 146.742188 220.671875 L 146.742188 212.789062 L 127.867188 212.789062 C 123.300781 212.789062 119.570312 209.058594 119.570312 204.492188 C 119.570312 199.929688 123.300781 196.195312 127.867188 196.195312 L 146.742188 196.195312 L 146.742188 180.019531 L 127.867188 180.019531 C 123.300781 180.019531 119.570312 176.285156 119.570312 171.722656 C 119.570312 167.160156 123.300781 163.425781 127.867188 163.425781 L 146.742188 163.425781 L 146.742188 155.542969 C 146.742188 150.980469 150.472656 147.246094 155.039062 147.246094 L 162.917969 147.246094 L 162.917969 128.371094 C 162.917969 123.808594 166.652344 120.074219 171.214844 120.074219 C 175.777344 120.074219 179.511719 123.808594 179.511719 128.371094 L 179.511719 147.246094 L 195.691406 147.246094 Z M 259.367188 108.875 C 241.113281 90.414062 215.601562 79.007812 187.601562 79.007812 C 159.394531 79.007812 134.089844 90.414062 115.628906 108.875 C 97.167969 127.128906 85.761719 152.640625 85.761719 180.640625 C 85.761719 224.820312 100.28125 236.644531 115.007812 248.464844 C 132.84375 262.984375 150.890625 277.710938 152.753906 330.1875 L 222.449219 330.1875 C 224.105469 277.710938 242.152344 262.984375 259.988281 248.464844 C 274.714844 236.644531 289.234375 224.820312 289.234375 180.640625 C 289.234375 152.640625 277.828125 127.128906 259.367188 108.875 Z M 259.367188 108.875 " fill-opacity="1" fill-rule="evenodd"/></svg>