<svg width="70" height="100" viewBox="0 0 70 100" fill="none" xmlns="http://www.w3.org/2000/svg">
<path d="M69.2708 34.7134C69.2708 53.885 53.764 69.4268 34.6354 69.4268C15.5068 69.4268 0 53.885 0 34.7134C0 15.5417 15.5068 0 34.6354 0C53.764 0 69.2708 15.5417 69.2708 34.7134Z" fill="#FDB713"/>
<path d="M22.0311 87.2611C22.0311 80.2415 27.7217 74.5223 34.7413 74.5223C41.761 74.5223 47.4516 80.2415 47.4516 87.2611C47.4516 94.2808 41.761 100 34.7413 100C27.7217 100 22.0311 94.2808 22.0311 87.2611Z" fill="#DE6D66"/>
<path d="M12.2866 80.0728C12.2866 76.421 15.2469 73.4607 18.8986 73.4607H50.6555C54.3073 73.4607 57.2676 76.421 57.2676 80.0728C57.2676 83.7245 54.3073 86.6849 50.6556 86.6849H18.8987C15.2469 86.6849 12.2866 83.7245 12.2866 80.0728Z" fill="#DF463D"/>
<path d="M4.66042 68.1832C4.66042 64.5314 7.62075 61.5711 11.2725 61.5711H58.0231C61.6748 61.5711 64.6352 64.5314 64.6352 68.1832C64.6352 71.8349 61.6748 74.7953 58.0231 74.7953H11.2725C7.62074 74.7953 4.66042 71.8349 4.66042 68.1832Z" fill="#C92F27"/>
</svg>
