<svg width="32" height="32" viewBox="0 0 32 32" fill="none" xmlns="http://www.w3.org/2000/svg">
<g clip-path="url(#clip0_395_382)">
<path fill-rule="evenodd" clip-rule="evenodd" d="M29.6824 0H2.412C1.1075 0 0 1.0315 0 2.30256V29.6963C0 30.9685 0.726813 32 2.03075 32H29.3012C30.6074 32 32 30.9685 32 29.6963V2.30256C32 1.0315 30.9881 0 29.6824 0ZM12.1902 12.1902H16.4982V14.3862H16.5454C17.2019 13.2021 19.1417 12.0001 21.5404 12.0001C26.1439 12.0001 27.4288 14.4444 27.4288 18.9713V27.4288H22.8571V19.8052C22.8571 17.7785 22.0479 16 20.1554 16C17.8574 16 16.7619 17.5556 16.7619 20.1099V27.4288H12.1902V12.1902ZM4.57119 27.4288H9.14294V12.1902H4.57119V27.4288ZM9.71425 6.85706C9.71425 8.43569 8.43569 9.71425 6.85706 9.71425C5.27844 9.71425 3.99987 8.43569 3.99987 6.85706C3.99987 5.27844 5.27844 3.99987 6.85706 3.99987C8.43569 3.99987 9.71425 5.27844 9.71425 6.85706Z" fill="white"/>
</g>
<defs>
<clipPath id="clip0_395_382">
<rect width="32" height="32" fill="white"/>
</clipPath>
</defs>
</svg>
